<?xml version="1.0" encoding="utf-8"?>
<!-- Generator: Adobe Illustrator 23.0.1, SVG Export Plug-In . SVG Version: 6.00 Build 0)  -->
<svg version="1.1" id="Layer_1" xmlns="http://www.w3.org/2000/svg" xmlns:xlink="http://www.w3.org/1999/xlink" x="0px" y="0px"
	 viewBox="0 0 500 500" style="enable-background:new 0 0 500 500;" xml:space="preserve">
<style type="text/css">
	.st0{fill:#ED1B1B;}
</style>
<path class="st0" d="M128.9,21.8c0-2.6,1-5.2,3-7.2c2-2,4.6-3,7.2-3h0c2.6,0,5.2,1,7.2,3L250,118.3l41.8-41.8c2-2,4.6-3,7.2-3h0
	c2.6,0,5.2,1,7.2,3c2,2,3,4.6,3,7.2v0c0,2.6-1,5.2-3,7.2L257.3,140c-2,2-4.6,3-7.2,3h0h-0.1h-0.1h-0.1h-0.1l-0.1,0l-0.1,0h-0.1
	l-0.1,0l0,0l-0.1,0l-0.1,0l-0.1,0l0,0l-0.1,0l-0.1,0l-0.1,0l-0.1,0l-0.1,0l-0.1,0l0,0l-0.1,0l0,0l-0.1,0l-0.1,0l-0.1,0l-0.1,0l0,0
	l-0.1,0l-0.1,0l0,0l-0.1,0l0,0l-0.1,0l0,0l-0.1,0l0,0l-0.1,0l0,0l-0.1,0l-0.1-0.1l0,0l-0.1,0l0,0l-0.1,0l0,0l-0.1-0.1l0,0l-0.1,0
	l-0.1-0.1l0,0l-0.1,0l0,0l-0.1-0.1l0,0l-0.1-0.1l0,0l-0.1-0.1l-0.1-0.1l0,0l-0.1-0.1l0,0l-0.1-0.1l0,0l-0.1-0.1l0,0l-0.1-0.1
	l-0.1-0.1l0,0l-0.1-0.1l-0.1-0.1l-0.1-0.1l-0.1-0.1l-0.1-0.1l-0.1-0.1l0,0l-0.1-0.1l-0.1-0.1l-0.1-0.1l0,0l-0.1-0.1l-0.1-0.1
	l-0.1-0.1l-0.1-0.1l0,0l-0.1-0.1l0,0l-0.1-0.1l-0.1-0.1l0,0l-0.1-0.1l-0.1-0.1l-0.1-0.1L131.8,29.1
	C129.8,27.1,128.9,24.5,128.9,21.8L128.9,21.8L128.9,21.8z"/>
<path class="st0" d="M371.2,478.1c0,2.6-1,5.2-3,7.2c-2,2-4.6,3-7.2,3h0c-2.6,0-5.2-1-7.2-3L250,381.7l-41.8,41.8c-2,2-4.6,3-7.2,3
	h0c-2.6,0-5.2-1-7.2-3c-2-2-3-4.6-3-7.2v0c0-2.6,1-5.2,3-7.2l49.1-49.1c2-2,4.6-3,7.2-3h0h0.1h0.1l0.1,0h0.1l0.1,0h0.1l0.1,0h0.1
	l0,0l0.1,0l0.1,0l0.1,0l0,0l0.1,0l0.1,0l0.1,0l0.1,0l0.1,0l0.1,0l0,0l0.1,0l0,0l0.1,0l0.1,0l0.1,0l0.1,0l0,0l0.1,0l0.1,0l0,0l0.1,0
	l0,0l0.1,0l0,0l0.1,0l0,0l0.1,0l0,0l0.1,0l0.1,0l0,0l0.1,0l0,0l0.1,0.1l0,0l0.1,0l0,0l0.1,0l0.1,0.1l0,0l0.1,0.1l0,0l0.1,0l0,0
	l0.1,0.1l0,0l0.1,0l0.1,0.1l0,0l0.1,0.1l0,0l0.1,0.1l0,0l0.1,0.1l0,0l0.1,0.1l0.1,0.1l0,0l0.1,0.1l0.1,0.1l0.1,0.1l0.1,0.1l0.1,0.1
	l0.1,0.1l0,0l0.1,0.1l0.1,0.1l0.1,0.1h0l0.1,0.1l0.1,0.1l0.1,0.1l0.1,0.1l0,0l0.1,0.1h0l0.1,0.1l0.1,0.1l0,0l0.1,0.1l0.1,0.1
	l0.1,0.1l110.9,110.9C370.2,472.9,371.2,475.5,371.2,478.1L371.2,478.1L371.2,478.1z"/>
<path class="st0" d="M325.7,3c1.9-1.8,4.4-3,7.2-3c2.8,0,5.4,1.2,7.2,3l0,0c1.9,1.9,3,4.4,3,7.2v146.6h59.1c2.8,0,5.4,1.2,7.2,3l0,0
	c1.9,1.9,3,4.4,3,7.2c0,2.8-1.2,5.4-3,7.2l0,0c-1.9,1.9-4.4,3-7.2,3h-69.4c-2.8,0-5.4-1.2-7.2-3l0,0l-0.1-0.1l-0.1-0.1l-0.1-0.1
	l-0.1-0.1l-0.1-0.1l-0.1-0.1l-0.1-0.1l-0.1-0.1l0,0l-0.1-0.1l-0.1-0.1l-0.1-0.1l0,0l-0.1-0.1l-0.1-0.1l-0.1-0.1l-0.1-0.1l-0.1-0.1
	l-0.1-0.1l0,0l-0.1-0.1l0,0l-0.1-0.1l-0.1-0.1l-0.1-0.1l-0.1-0.1l0,0l-0.1-0.1l-0.1-0.1l0,0l0-0.1l0,0l-0.1-0.1l0,0l-0.1-0.1l0,0
	l-0.1-0.1l0,0l0-0.1l-0.1-0.1l0,0l-0.1-0.1l0,0l0-0.1l0,0l-0.1-0.1l0,0l0-0.1l0-0.1l0,0l-0.1-0.1l0,0l0-0.1l0,0l0-0.1l0,0l0-0.1
	l-0.1-0.1l0,0l0-0.1l0,0l0-0.1l0,0l0-0.1h0l0-0.1l0-0.1l0,0l0-0.1l0-0.1l0-0.1l0-0.1l0-0.1l0-0.1l0,0l0-0.1l0-0.1l0-0.1l0,0l0-0.1
	v-0.1l0-0.1l0-0.1l0,0v-0.1l0,0l0-0.1l0-0.1l0,0v-0.1v-0.1v-0.1V10.2C322.6,7.4,323.8,4.9,325.7,3L325.7,3L325.7,3z"/>
<path class="st0" d="M174.3,497c-1.8,1.9-4.4,3-7.2,3c-2.8,0-5.4-1.2-7.2-3l0,0c-1.9-1.9-3-4.4-3-7.2V343.1H97.8
	c-2.8,0-5.4-1.1-7.2-3l0,0c-1.9-1.9-3-4.4-3-7.2c0-2.8,1.2-5.4,3-7.2l0,0c1.8-1.9,4.4-3,7.2-3h69.4c2.8,0,5.4,1.2,7.2,3l0,0l0.1,0.1
	l0.1,0.1l0.1,0.1l0.1,0.1l0.1,0.1l0.1,0.1l0.1,0.1l0.1,0.1l0,0l0.1,0.1l0.1,0.1l0.1,0.1l0,0l0.1,0.1l0.1,0.1l0.1,0.1l0.1,0.1
	l0.1,0.1l0.1,0.1l0,0l0.1,0.1l0,0l0.1,0.1l0.1,0.1l0.1,0.1l0.1,0.1l0,0l0.1,0.1l0.1,0.1l0,0l0.1,0.1l0,0l0.1,0.1l0,0l0,0.1h0l0,0.1
	v0l0.1,0.1l0.1,0.1l0,0l0.1,0.1l0,0l0,0.1l0,0l0.1,0.1l0,0l0,0.1l0.1,0.1l0,0l0.1,0.1l0,0l0,0.1l0,0l0,0.1l0,0l0.1,0.1l0,0.1l0,0
	l0,0.1l0,0l0,0.1l0,0l0,0.1l0,0l0,0.1l0,0.1l0,0l0,0.1l0,0.1l0,0.1l0,0.1l0,0.1l0,0.1l0,0l0,0.1v0.1l0,0.1l0,0l0,0.1l0,0.1l0,0.1
	l0,0.1l0,0l0,0.1l0,0v0.1l0,0.1l0,0v0.1v0.1v0.1v156.9C177.4,492.6,176.2,495.1,174.3,497L174.3,497L174.3,497z"/>
<path class="st0" d="M478.2,128.8c2.6,0,5.2,1,7.2,3c2,2,3,4.6,3,7.2v0c0,2.6-1,5.2-3,7.2L381.7,250l41.8,41.8c2,2,3,4.6,3,7.2v0
	c0,2.6-1,5.2-3,7.2c-2,2-4.6,3-7.2,3h0c-2.6,0-5.3-1-7.2-3L360,257.2c-2-2-3-4.6-3-7.2v0v-0.1l0-0.1v-0.1v-0.1v-0.1l0-0.1v-0.1
	l0-0.1l0,0l0-0.1l0-0.1l0-0.1l0,0l0-0.1l0-0.1l0-0.1l0-0.1l0-0.1l0-0.1l0,0l0-0.1l0,0l0-0.1l0-0.1l0-0.1l0-0.1l0,0l0-0.1l0-0.1l0,0
	l0-0.1l0,0l0-0.1l0,0l0-0.1l0,0l0-0.1l0,0l0-0.1l0-0.1l0,0l0-0.1l0,0l0-0.1h0l0-0.1l0,0l0.1-0.1l0-0.1l0,0l0-0.1h0l0-0.1l0,0
	l0.1-0.1l0,0l0.1-0.1l0.1-0.1l0,0l0-0.1l0,0l0.1-0.1l0,0l0.1-0.1l0,0l0.1-0.1l0.1-0.1l0,0l0.1-0.1l0.1-0.1l0.1-0.1l0.1-0.1l0.1-0.1
	l0.1-0.1l0,0l0.1-0.1l0.1-0.1l0.1-0.1l0,0l0.1-0.1l0.1-0.1l0.1-0.1l0.1-0.1l0,0l0.1-0.1l0,0l0.1-0.1l0.1-0.1l0,0l0.1-0.1l0.1-0.1
	l0.1-0.1l110.9-110.9C472.9,129.8,475.5,128.8,478.2,128.8L478.2,128.8L478.2,128.8z"/>
<path class="st0" d="M21.9,371.1c-2.6,0-5.2-1-7.2-3c-2-2-3-4.6-3-7.2v0c0-2.6,1-5.2,3-7.2L118.3,250l-41.8-41.8c-2-2-3-4.6-3-7.2v0
	c0-2.6,1-5.2,3-7.2c2-2,4.6-3,7.2-3h0c2.6,0,5.2,1,7.2,3l49.1,49.1c2,2,3,4.6,3,7.2v0v0.1v0.1l0,0.1v0.1l0,0.1v0.1l0,0.1l0,0.1l0,0
	l0,0.1l0,0.1v0.1l0,0l0,0.1l0,0.1l0,0.1l0,0.1l0,0.1l0,0.1l0,0l0,0.1l0,0l0,0.1l0,0.1l0,0.1l0,0.1l0,0l0,0.1l0,0.1l0,0l0,0.1l0,0
	l0,0.1l0,0l0,0.1l0,0l0,0.1l0,0l0,0.1l0,0.1h0l0,0.1l0,0l0,0.1l0,0l-0.1,0.1l0,0l0,0.1l-0.1,0.1l0,0l-0.1,0.1l0,0l-0.1,0.1l0,0
	l-0.1,0.1l0,0l0,0.1l-0.1,0.1l0,0l-0.1,0.1l0,0l0,0.1h0l-0.1,0.1l0,0l-0.1,0.1l-0.1,0.1h0l-0.1,0.1l-0.1,0.1l-0.1,0.1l-0.1,0.1
	l-0.1,0.1l-0.1,0.1l0,0l-0.1,0.1l-0.1,0.1l-0.1,0.1l0,0l-0.1,0.1l-0.1,0.1l-0.1,0.1l-0.1,0.1l0,0l-0.1,0.1l0,0l-0.1,0.1l-0.1,0.1
	l0,0l-0.1,0.1l-0.1,0.1l-0.1,0.1L29.1,368.2C27.1,370.2,24.5,371.1,21.9,371.1L21.9,371.1L21.9,371.1z"/>
<path class="st0" d="M497,325.7c1.9,1.9,3,4.4,3,7.2c0,2.8-1.1,5.4-3,7.2l0,0c-1.9,1.9-4.4,3-7.2,3l-146.6,0v59.1
	c0,2.8-1.2,5.4-3,7.2l0,0c-1.9,1.9-4.4,3-7.2,3c-2.8,0-5.4-1.2-7.2-3l0,0c-1.9-1.9-3-4.4-3-7.2v-69.4c0-2.8,1.1-5.4,3-7.2l0,0
	l0.1-0.1l0.1-0.1l0.1-0.1l0.1-0.1l0.1-0.1l0.1-0.1l0.1-0.1l0.1-0.1l0,0l0.1-0.1l0.1-0.1l0.1-0.1l0,0l0.1-0.1l0.1-0.1l0.1-0.1
	l0.1-0.1l0.1-0.1l0.1-0.1l0,0l0.1-0.1l0,0l0.1-0.1l0.1-0.1l0.1-0.1l0.1-0.1l0,0l0.1-0.1l0.1-0.1l0,0l0.1-0.1l0,0l0.1-0.1l0,0
	l0.1-0.1l0,0l0.1-0.1l0,0l0.1-0.1l0.1-0.1l0,0l0.1,0l0,0l0.1-0.1l0,0l0.1,0l0,0l0.1-0.1l0.1,0l0,0l0.1,0l0,0l0.1,0l0,0l0.1,0l0,0
	l0.1,0l0.1,0l0,0l0.1,0l0,0l0.1,0l0,0l0.1,0l0,0l0.1,0l0.1,0l0,0l0.1,0l0.1,0l0.1,0l0.1,0l0.1,0l0.1,0l0,0l0.1,0l0.1,0l0.1,0l0,0
	l0.1,0l0.1,0l0.1,0l0.1,0l0,0h0.1l0,0l0.1,0h0.1l0,0l0.1,0h0.1h0.1h156.9C492.6,322.6,495.1,323.8,497,325.7L497,325.7L497,325.7z"
	/>
<path class="st0" d="M3,174.3c-1.8-1.9-3-4.4-3-7.2c0-2.8,1.1-5.4,3-7.2l0,0c1.9-1.9,4.4-3,7.2-3h146.6V97.8c0-2.8,1.2-5.4,3-7.2
	l0,0c1.9-1.9,4.4-3,7.2-3c2.8,0,5.4,1.2,7.2,3l0,0c1.9,1.9,3,4.4,3,7.2v69.4c0,2.8-1.1,5.4-3,7.2l0,0l-0.1,0.1l-0.1,0.1l-0.1,0.1
	l-0.1,0.1l-0.1,0.1l-0.1,0.1l-0.1,0.1l-0.1,0.1l0,0l-0.1,0.1l-0.1,0.1l-0.1,0.1l0,0l-0.1,0.1l-0.1,0.1l-0.1,0.1l-0.1,0.1l-0.1,0.1
	l-0.1,0.1l0,0l-0.1,0.1l0,0l-0.1,0.1l-0.1,0.1l-0.1,0.1l-0.1,0.1l0,0l-0.1,0.1l-0.1,0.1v0l-0.1,0.1l0,0l-0.1,0.1l0,0l-0.1,0.1l0,0
	l-0.1,0.1l0,0l-0.1,0l-0.1,0.1v0l-0.1,0.1h0l-0.1,0.1l0,0l-0.1,0l0,0l-0.1,0l-0.1,0.1l0,0l-0.1,0l0,0l-0.1,0l0,0l-0.1,0l0,0l-0.1,0
	l-0.1,0l0,0l-0.1,0l0,0l-0.1,0v0l-0.1,0l0,0l-0.1,0l-0.1,0l0,0l-0.1,0l-0.1,0l-0.1,0l-0.1,0l-0.1,0l-0.1,0l0,0l-0.1,0l-0.1,0l-0.1,0
	l0,0l-0.1,0l-0.1,0l-0.1,0l-0.1,0l0,0h-0.1l0,0l-0.1,0h-0.1l0,0h-0.1h-0.1h-0.1H10.2C7.4,177.4,4.9,176.2,3,174.3L3,174.3L3,174.3z"
	/>
</svg>
